<?xml version="1.0" encoding="UTF-8"?><svg id="Layer_1" xmlns="http://www.w3.org/2000/svg" viewBox="0 0 311.14 166.31"><defs><style>.cls-1{letter-spacing:.18em;}.cls-2{letter-spacing:.22em;}.cls-3{letter-spacing:.22em;}.cls-4{letter-spacing:.22em;}.cls-5{fill:#1c75bc;}.cls-5,.cls-6{stroke-width:0px;}.cls-6{fill:#27aae1;}.cls-7{fill:#e6e7e8;font-family:BebasNeue-Regular, 'Bebas Neue';font-size:32.54px;}</style></defs><path class="cls-5" d="m4.45,99.44C1.49,96.22,0,91.61,0,85.61v-39C0,40.61,1.49,36,4.45,32.78c2.97-3.21,7.28-4.82,12.93-4.82s9.96,1.61,12.93,4.82c2.97,3.21,4.45,7.82,4.45,13.83v6.36h-11.02v-7.1c0-4.87-2.01-7.31-6.04-7.31s-6.04,2.44-6.04,7.31v40.59c0,4.8,2.01,7.21,6.04,7.21s6.04-2.4,6.04-7.21v-14.52h-5.83v-10.6h16.85v24.27c0,6.01-1.48,10.62-4.45,13.83-2.97,3.22-7.28,4.82-12.93,4.82s-9.96-1.61-12.93-4.82Z"/><path class="cls-5" d="m42.28,29.02h31.79v10.6h-20.13v19.6h16v10.6h-16v22.78h20.13v10.6h-31.79V29.02Z"/><path class="cls-5" d="m80.75,29.02h14.62l11.34,44.4h.21V29.02h10.38v74.18h-11.97l-13.99-54.15h-.21v54.15h-10.39V29.02Z"/><path class="cls-5" d="m126,29.02h31.79v10.6h-20.13v19.6h16v10.6h-16v22.78h20.13v10.6h-31.79V29.02Z"/><path class="cls-5" d="m164.46,29.02h17.27c6,0,10.39,1.4,13.14,4.19,2.75,2.79,4.13,7.08,4.13,12.88v4.56c0,7.7-2.54,12.58-7.63,14.62v.21c2.82.85,4.82,2.58,5.99,5.19,1.17,2.61,1.75,6.11,1.75,10.49v13.03c0,2.12.07,3.83.21,5.14.14,1.31.49,2.6,1.06,3.87h-11.87c-.42-1.2-.71-2.33-.85-3.39s-.21-2.97-.21-5.72v-13.56c0-3.39-.55-5.76-1.64-7.1-1.1-1.34-2.99-2.01-5.67-2.01h-4.03v31.79h-11.66V29.02Zm15.89,31.79c2.33,0,4.08-.6,5.25-1.8,1.16-1.2,1.75-3.21,1.75-6.04v-5.72c0-2.68-.48-4.63-1.43-5.83-.95-1.2-2.46-1.8-4.5-1.8h-5.3v21.19h4.24Z"/><path class="cls-5" d="m207.17,29.02h11.66v74.18h-11.66V29.02Z"/><path class="cls-5" d="m231.17,99.49c-2.93-3.18-4.4-7.66-4.4-13.46v-39.84c0-5.79,1.46-10.28,4.4-13.46,2.93-3.18,7.19-4.77,12.77-4.77s9.84,1.59,12.77,4.77c2.93,3.18,4.4,7.67,4.4,13.46v7.84h-11.02v-8.58c0-4.59-1.94-6.89-5.83-6.89s-5.83,2.3-5.83,6.89v41.43c0,4.52,1.94,6.78,5.83,6.78s5.83-2.26,5.83-6.78v-11.34h11.02v10.49c0,5.79-1.47,10.28-4.4,13.46-2.93,3.18-7.19,4.77-12.77,4.77s-9.84-1.59-12.77-4.77Z"/><path class="cls-6" d="m305.07,71.67l-53.24-36.28L203.47,2.44c-9.22-6.28-21.71.32-21.71,11.48v39.28c0-17.06,19.1-27.15,33.19-17.55l18.26,12.45,25.71,17.52c12.37,8.43,12.37,26.66,0,35.09l-25.71,17.52-18.26,12.45c-14.1,9.61-33.19-.49-33.19-17.55v39.28c0,11.16,12.49,17.76,21.71,11.48l48.37-32.96,53.24-36.28c8.09-5.51,8.09-17.44,0-22.96Z"/><text class="cls-7" transform="translate(0 138.97) scale(1.9 1)"><tspan class="cls-2" x="0" y="0">c</tspan><tspan class="cls-4" x="19.62" y="0">om</tspan><tspan class="cls-1" x="64.33" y="0">p</tspan><tspan class="cls-3" x="82.84" y="0">any</tspan></text></svg>